<svg xmlns="http://www.w3.org/2000/svg" width="512.001" height="512.001" shape-rendering="geometricPrecision" text-rendering="geometricPrecision" image-rendering="optimizeQuality" fill-rule="evenodd" clip-rule="evenodd" viewBox="0 0 13546.66 13546.66"><path d="M6773.39 0c1870.33 0 3563.8 758.31 4789.38 1983.89 1225.71 1225.58 1983.89 2919.18 1983.89 4789.51 0 1870.33-758.18 3563.8-1983.89 4789.38-1225.58 1225.71-2919.05 1983.89-4789.38 1983.89s-3563.93-758.31-4789.51-1983.89C758.3 10337.2-.01 8643.73-.01 6773.4S758.3 3209.47 1983.88 1983.89C3209.46 758.31 4903.06 0 6773.39 0zm-299.97 7410.07c.25 5.71.37 11.67.37 17.5 0 185.05-53.49 366.25-153.77 521.76-109.59 161.84-263.86 288.8-443.94 365.25-204.04 86.38-423.59 130.94-645.37 130.94a1602 1602 0 01-34.75-.38c-18.25.25-37.11.62-55.6.62-164.7 0-329.39-14.76-491.6-44.05-158.49-35.25-313.25-89.61-458.96-161.59l.13-786.11c166.18 85.26 341.92 153.52 522.62 201.92 163.08 45.55 331.75 70 500.78 72.36 130.69 0 226.88-22.96 287.94-67.89 57.09-38.6 91.34-103.38 91.34-172.39v-1.74c0-1.48.25-2.97.25-4.34 0-40.96-13.4-80.42-37.6-113.31-33.14-39.59-73.35-73.35-118.03-99.29-140.87-76.45-287.56-147.94-435.75-210.24-171.15-71.74-332.49-166.68-478.69-280.98-101.4-84.4-182.44-191.5-236.06-312.01a1041.923 1041.923 0 01-74.96-387.97c0-10.43.25-20.85.5-31.15-.13-299.85 108.59-534.17 326.03-702.83 217.44-168.67 518.53-252.69 902.78-252.07 356.56 4.22 708.91 83.9 1032.34 233.95l-269.32 680.61c-304.94-139.5-566.19-209.49-789.58-209.49-114.06 0-198.21 20.47-249.84 60.93-48.65 33.76-77.94 89.11-78.56 148.56 2.98 70.74 40.21 135.78 99.79 174.13 66.15 50.51 245.24 142.48 538.76 276.51 280.48 126.22 475.71 262.12 585.17 407.58 106.86 150.05 164.32 330.13 164.32 514.56 0 10.79-.25 22.09-.74 32.89v-2.24zm1950.13 618.31c-.37-8.19-.75-16.75-.75-25.07 0-109.83 44.31-215.08 122.75-291.9 80.55-73.6 198.45-110.95 353.09-110.95 147.32 0 261.25 37.35 338.82 110.95 77.44 73.47 118.9 180.83 118.9 316.97.24 7.58.62 15.27.62 22.72 0 109.46-44.31 214.46-122.75 290.91-80.92 75.83-192.24 112.81-335.59 112.81-143.1 0-263.98-36.98-348.38-111.2-81.41-75.21-127.7-181.45-127.7-292.52 0-7.57.24-15.02.62-22.72h.37zm212.72-2936.3l-1215.9 3353.19h-772.21l1216.65-3353.19h771.46zm3455.58 1878.27c-12.41 339.57-56.72 670.19-129.32 989.65l1010.37 270.81c95.2-406.59 151.42-828.06 164.57-1260.46h-1045.62zm-230.97 1369.92c-98.91 321.69-227.61 630.35-382.75 922.88l905.88 522.87c199.69-371.21 363.64-764.39 487.25-1175.07l-1010.38-270.68zm-579.21 1262.44c-179.09 284.83-384.37 551.42-612.48 796.41l740.18 738.33c291.66-309.65 552.79-648.47 778.17-1011.86l-905.87-522.88zm-889.62 1073.05c-243.01 225.39-507.61 428.43-788.96 605.66l522.99 905.87c361.78-224.51 699.36-484.52 1008.02-774.69l-742.05-736.84zm-1129.15 802.49c-292.03 154.77-600.94 283.72-922.63 382.63l270.81 1010.38c410.68-123.49 803.73-287.44 1174.82-487.13l-523-905.88zm-1302.78 484.28c-319.83 72.98-650.95 116.91-989.64 129.32v1045.62c432.27-13.15 853.87-69.37 1260.33-164.57l-270.69-1010.37zm-1383.82 129.32c-339.31-12.41-670.06-56.72-989.64-129.32l-270.69 1010.37c406.59 95.2 828.06 151.42 1260.33 164.57v-1045.62zm-1369.79-230.97c-321.82-99.03-630.11-227.61-922.63-382.63l-523 905.76c371.09 199.56 764.14 363.64 1174.82 487.25l270.81-1010.38zm-1262.82-579.46c-282.96-177.98-547.94-381.89-791.69-608.14l-739.32 739.32c308.66 290.29 646.24 550.05 1008.02 774.57l522.99-905.75zm-1070.19-886.64c-226.5-244-430.66-509.59-608.39-792.19l-905.87 523.12c224.64 361.9 484.52 699.61 774.94 1008.39l739.32-739.32zm-804.85-1131.63c-154.89-292.28-283.72-601.06-382.75-922.88L675.4 8611.08c123.61 410.68 287.68 803.98 487.37 1175.07l905.88-523zM1584.25 7960c-72.85-319.95-116.91-650.95-129.32-989.65H409.18c13.16 432.4 69.38 854 164.57 1260.46L1584.25 7960zm-129.32-1383.82c12.41-339.19 56.72-669.82 129.32-989.52L573.88 5315.85c-95.2 406.46-151.54 828.06-164.7 1260.33h1045.75zm230.97-1369.8c99.03-321.94 227.74-630.47 382.87-922.75l-906-523C962.96 4131.72 799.01 4524.9 675.4 4935.58l1010.5 270.8zm579.34-1262.31c177.97-283.1 381.88-548.19 608.38-792.07l-739.44-739.44c-290.29 308.78-550.3 646.36-774.94 1008.39l906 523.12zm887.01-1070.45c243.87-226.5 509.22-430.53 791.57-608.13l-523.12-906c-361.78 224.51-699.36 484.27-1008.02 774.56l739.57 739.57zM4284 2068.65c292.03-154.77 601.06-283.59 922.51-382.63L4935.7 675.4c-410.55 123.61-803.73 287.56-1174.82 487.25l523.12 906zm1302.78-484.28c319.83-72.85 650.83-116.91 989.52-129.32V409.18c-432.27 13.16-853.87 69.38-1260.33 164.57l270.81 1010.62zm1383.7-129.32c339.19 12.41 669.94 56.6 989.52 129.32l270.81-1010.62c-406.46-95.19-828.06-151.41-1260.33-164.57v1045.87zm1369.79 230.97c321.69 98.91 630.11 227.74 922.51 382.63l523.12-906A6326.63 6326.63 0 008611.08 675.4l-270.81 1010.62zm1262.69 579.47c282.97 177.97 547.82 381.76 791.57 608.13l739.57-739.57c-308.66-290.16-646.24-550.05-1008.02-774.56l-523.12 906zm1068.09 884.28c229.6 246.97 433.64 512.82 610.62 794.17l905.87-522.87c-224.51-361.9-484.65-699.73-774.94-1008.51l-52.87 52.87-686.57 686.57-2.11-2.23zm807.08 1133.74c372.21 701.59 584.68 1482.61 613.72 2292.67h1045.62c-13.15-432.4-69.25-853.75-164.57-1260.21l-1010.37 270.69c-29.29-128.58-63.17-255.42-101.65-380.28l1010.38-270.68c-123.61-410.68-287.56-803.98-487.25-1175.07l-905.88 522.88zm-4704.74-2464.2c2736.12 0 4954.2 2218.09 4954.2 4954.08 0 2736.12-2218.08 4954.2-4954.2 4954.2s-4954.2-2218.08-4954.2-4954.2c0-2735.99 2218.08-4954.08 4954.2-4954.08z"/></svg>